<svg width="757" height="757" viewBox="0 0 757 757" fill="none" xmlns="http://www.w3.org/2000/svg">
<line x1="340.478" y1="456.806" x2="340.478" y2="756.806" stroke="black" stroke-width="80"/>
<path d="M190.301 555.804L190.301 755.804" stroke="black" stroke-width="80"/>
<path d="M0 416.939L380.605 416.939" stroke="black" stroke-width="80"/>
<path d="M1.00098 566.938H230.366" stroke="black" stroke-width="80"/>
<line x1="716.872" y1="80.2134" x2="716.872" y2="380.213" stroke="black" stroke-width="80"/>
<path d="M566.697 179.213V379.213" stroke="black" stroke-width="80"/>
<path d="M376.395 40.3467L757 40.3467" stroke="black" stroke-width="80"/>
<path d="M377.396 190.346L606.76 190.346" stroke="black" stroke-width="80"/>
<line x1="79.9658" y1="40.0005" x2="380.444" y2="40.0005" stroke="black" stroke-width="80"/>
<path d="M179.126 190L379.445 190" stroke="black" stroke-width="80"/>
<path d="M40.0371 380L40.0371 0" stroke="black" stroke-width="80"/>
<path d="M190.275 379V150" stroke="black" stroke-width="80"/>
<line x1="677.049" y1="717" x2="376.571" y2="717" stroke="black" stroke-width="80"/>
<path d="M577.891 567H377.572" stroke="black" stroke-width="80"/>
<path d="M716.979 377V757" stroke="black" stroke-width="80"/>
<path d="M566.739 378V607" stroke="black" stroke-width="80"/>
</svg>
